<svg width="15" height="15" viewBox="0 0 15 15" fill="none" xmlns="http://www.w3.org/2000/svg">
<path d="M6.06877 7.05624C5.95108 6.93855 5.79146 6.87243 5.62502 6.87243C5.45859 6.87243 5.29896 6.93855 5.18127 7.05624C5.06358 7.17393 4.99747 7.33355 4.99747 7.49999C4.99747 7.66643 5.06358 7.82605 5.18127 7.94374L7.05627 9.81874C7.11467 9.87666 7.18393 9.92249 7.26008 9.9536C7.33623 9.9847 7.41777 10.0005 7.50002 9.99999C7.58559 9.99727 7.66968 9.97701 7.74709 9.94046C7.82449 9.9039 7.89357 9.85184 7.95002 9.78749L12.325 4.78749C12.426 4.66207 12.4748 4.50249 12.461 4.34204C12.4472 4.18158 12.3721 4.03263 12.2512 3.92624C12.1303 3.81985 11.973 3.76424 11.8121 3.77099C11.6512 3.77774 11.4991 3.84634 11.3875 3.96249L7.50002 8.46249L6.06877 7.05624Z" fill="#4CA2BD"/>
<path d="M13.1251 6.87499C12.9593 6.87499 12.8004 6.94084 12.6832 7.05805C12.5659 7.17526 12.5001 7.33423 12.5001 7.49999C12.5001 8.82608 11.9733 10.0978 11.0356 11.0355C10.0979 11.9732 8.82618 12.5 7.5001 12.5C6.51265 12.4995 5.54745 12.2067 4.7262 11.6585C3.90495 11.1102 3.26442 10.331 2.8854 9.41922C2.50637 8.50742 2.40581 7.5038 2.5964 6.53492C2.78699 5.56605 3.2602 4.6753 3.95635 3.97499C4.41929 3.50586 4.97115 3.13377 5.57963 2.8805C6.18812 2.62723 6.84101 2.49787 7.5001 2.49999C7.89975 2.50249 8.29794 2.5486 8.6876 2.63749C8.76914 2.66271 8.85498 2.67097 8.93984 2.66174C9.02469 2.65252 9.10675 2.62601 9.18097 2.58385C9.25519 2.5417 9.31998 2.48479 9.37136 2.41663C9.42274 2.34847 9.45961 2.27052 9.47971 2.18756C9.49981 2.10461 9.5027 2.01842 9.48821 1.9343C9.47372 1.85019 9.44216 1.76994 9.39546 1.69849C9.34877 1.62704 9.28794 1.56591 9.21672 1.51887C9.14549 1.47184 9.06539 1.43989 8.98135 1.42499C8.49581 1.31077 7.99888 1.25206 7.5001 1.24999C6.26531 1.25641 5.06009 1.62844 4.03653 2.31915C3.01298 3.00986 2.21695 3.98828 1.74892 5.13095C1.28089 6.27362 1.16182 7.52932 1.40674 8.73959C1.65167 9.94986 2.2496 11.0605 3.1251 11.9312C4.28553 13.0922 5.85863 13.7462 7.5001 13.75C9.1577 13.75 10.7474 13.0915 11.9195 11.9194C13.0916 10.7473 13.7501 9.1576 13.7501 7.49999C13.7501 7.33423 13.6842 7.17526 13.567 7.05805C13.4498 6.94084 13.2909 6.87499 13.1251 6.87499Z" fill="#4CA2BD"/>
</svg>
